<svg xmlns="http://www.w3.org/2000/svg" xmlns:xlink="http://www.w3.org/1999/xlink" width="500" zoomAndPan="magnify" viewBox="0 0 375 374.999991" height="500" preserveAspectRatio="xMidYMid meet" version="1.0"><defs><g/><clipPath id="e40227b404"><path d="M 115 163 L 165.75 163 L 165.75 179 L 115 179 Z M 115 163 " clip-rule="nonzero"/></clipPath><clipPath id="b35832ee89"><path d="M 37.5 161.152344 L 165.75 161.152344 L 165.75 211.402344 L 37.5 211.402344 Z M 37.5 161.152344 " clip-rule="nonzero"/></clipPath><clipPath id="9d09c02281"><path d="M 145 148 L 192 148 L 192 220 L 145 220 Z M 145 148 " clip-rule="nonzero"/></clipPath><clipPath id="6e73441b08"><path d="M 145.15625 156.304688 L 168.265625 148.007812 L 191.085938 211.570312 L 167.976562 219.867188 Z M 145.15625 156.304688 " clip-rule="nonzero"/></clipPath><clipPath id="2c595f0fd7"><path d="M 106.253906 168.886719 L 147.503906 168.886719 L 147.503906 201.136719 L 106.253906 201.136719 Z M 106.253906 168.886719 " clip-rule="nonzero"/></clipPath></defs><g clip-path="url(#e40227b404)"><path fill="#bb2700" d="M 115.707031 178.367188 L 115.707031 163.507812 L 219.714844 163.507812 L 219.714844 178.367188 Z M 115.707031 178.367188 " fill-opacity="1" fill-rule="evenodd"/></g><path fill="#bb2700" d="M 45.648438 186.859375 L 45.648438 178.371094 L 89.164062 178.371094 L 89.164062 186.859375 Z M 45.648438 186.859375 " fill-opacity="1" fill-rule="evenodd"/><g clip-path="url(#b35832ee89)"><path fill="#bb2700" d="M 37.960938 194.292969 C 38.257812 194.683594 38.972656 194.894531 40.277344 194.980469 C 40.933594 195.023438 41.585938 195.15625 41.730469 195.277344 C 41.886719 195.40625 43.035156 195.527344 44.664062 195.582031 C 46.929688 195.660156 47.449219 195.625 48.007812 195.355469 C 48.304688 195.21875 48.671875 195.140625 50.453125 195.128906 L 85.507812 196.398438 C 86.863281 196.304688 87.984375 196.628906 89.148438 197.300781 C 90.03125 197.847656 91.101562 198.730469 93.089844 200.457031 C 100.371094 207.363281 109.707031 210.722656 119.5625 211.347656 L 217.964844 211.320312 C 220.515625 210.988281 224.496094 209.691406 225.355469 207.644531 L 225.355469 164.925781 C 224.496094 162.878906 220.515625 161.582031 217.964844 161.25 L 119.5625 161.222656 C 109.707031 161.847656 100.371094 165.207031 93.089844 172.109375 C 90.769531 174.125 89.699219 174.996094 88.71875 175.515625 C 87.800781 176.09375 86.816406 176.125 85.773438 176.164062 L 50.453125 177.4375 C 48.675781 177.429688 48.304688 177.351562 48.007812 177.210938 C 47.449219 176.945312 46.929688 176.910156 44.664062 176.988281 C 43.035156 177.042969 41.886719 177.164062 41.730469 177.292969 C 41.585938 177.414062 40.933594 177.546875 40.277344 177.589844 C 38.972656 177.675781 38.257812 177.886719 37.960938 178.273438 C 37.550781 183.597656 37.515625 188.972656 37.960938 194.292969 Z M 49.3125 180.917969 L 49.3125 179.988281 L 82.746094 179.988281 L 82.746094 180.917969 Z M 121.378906 170.515625 L 218.144531 170.515625 L 218.144531 171.628906 L 121.378906 171.628906 Z M 121.378906 166.613281 L 218.144531 166.613281 L 218.144531 169.027344 L 121.378906 169.027344 Z M 121.378906 166.613281 " fill-opacity="1" fill-rule="nonzero"/></g><g clip-path="url(#9d09c02281)"><g clip-path="url(#6e73441b08)"><path fill="#fffaf4" d="M 145.15625 156.304688 L 168.265625 148.007812 L 191.082031 211.5625 L 167.972656 219.859375 Z M 145.15625 156.304688 " fill-opacity="1" fill-rule="nonzero"/></g></g><path fill="#ffffff" d="M 121.359375 185.949219 C 120.292969 185.949219 119.425781 187.101562 119.425781 188.527344 C 119.425781 189.949219 120.292969 191.101562 121.359375 191.101562 C 122.425781 191.101562 123.289062 189.949219 123.289062 188.527344 C 123.289062 187.101562 122.425781 185.949219 121.359375 185.949219 Z M 122.089844 188.121094 C 121.734375 188.121094 121.445312 187.832031 121.445312 187.476562 C 121.445312 187.121094 121.734375 186.828125 122.089844 186.828125 C 122.445312 186.828125 122.734375 187.121094 122.734375 187.476562 C 122.734375 187.832031 122.445312 188.121094 122.089844 188.121094 Z M 122.089844 188.121094 " fill-opacity="1" fill-rule="nonzero"/><path fill="#ffffff" d="M 126.855469 199.425781 C 124.875 199.425781 123.027344 198.464844 121.648438 196.71875 C 121.492188 196.523438 121.523438 196.234375 121.722656 196.078125 C 121.921875 195.917969 122.210938 195.953125 122.367188 196.152344 C 123.570312 197.671875 125.160156 198.511719 126.855469 198.511719 C 128.53125 198.511719 130.113281 197.6875 131.3125 196.191406 C 131.46875 195.992188 131.757812 195.960938 131.957031 196.117188 C 132.152344 196.277344 132.1875 196.566406 132.027344 196.761719 C 130.652344 198.480469 128.816406 199.425781 126.855469 199.425781 Z M 126.855469 199.425781 " fill-opacity="1" fill-rule="nonzero"/><path fill="#ffffff" d="M 133.410156 190.996094 C 133.332031 190.996094 133.253906 190.976562 133.183594 190.933594 L 129.699219 188.921875 C 129.554688 188.839844 129.46875 188.6875 129.46875 188.527344 C 129.46875 188.363281 129.554688 188.210938 129.699219 188.128906 L 133.183594 186.117188 C 133.402344 185.992188 133.679688 186.066406 133.808594 186.285156 C 133.933594 186.503906 133.859375 186.785156 133.640625 186.910156 L 130.84375 188.527344 L 133.640625 190.140625 C 133.859375 190.265625 133.933594 190.546875 133.808594 190.765625 C 133.722656 190.914062 133.570312 190.996094 133.410156 190.996094 Z M 133.410156 190.996094 " fill-opacity="1" fill-rule="nonzero"/><path fill="#ffffff" d="M 110.457031 190.445312 L 109.910156 190.445312 C 109.65625 190.445312 109.453125 190.652344 109.453125 190.90625 C 109.453125 191.15625 109.65625 191.363281 109.910156 191.363281 L 110.457031 191.363281 C 110.710938 191.363281 110.917969 191.15625 110.917969 190.90625 C 110.917969 190.652344 110.710938 190.445312 110.457031 190.445312 Z M 110.457031 190.445312 " fill-opacity="1" fill-rule="nonzero"/><path fill="#ffffff" d="M 110.457031 189.132812 L 109.910156 189.132812 C 109.65625 189.132812 109.453125 189.335938 109.453125 189.589844 C 109.453125 189.84375 109.65625 190.050781 109.910156 190.050781 L 110.457031 190.050781 C 110.710938 190.050781 110.917969 189.84375 110.917969 189.589844 C 110.917969 189.335938 110.710938 189.132812 110.457031 189.132812 Z M 110.457031 189.132812 " fill-opacity="1" fill-rule="nonzero"/><path fill="#ffffff" d="M 110.457031 187.816406 L 109.910156 187.816406 C 109.65625 187.816406 109.453125 188.023438 109.453125 188.277344 C 109.453125 188.53125 109.65625 188.734375 109.910156 188.734375 L 110.457031 188.734375 C 110.710938 188.734375 110.917969 188.53125 110.917969 188.277344 C 110.917969 188.023438 110.710938 187.816406 110.457031 187.816406 Z M 110.457031 187.816406 " fill-opacity="1" fill-rule="nonzero"/><path fill="#ffffff" d="M 110.457031 191.757812 L 109.910156 191.757812 C 109.65625 191.757812 109.453125 191.964844 109.453125 192.21875 C 109.453125 192.472656 109.65625 192.675781 109.910156 192.675781 L 110.457031 192.675781 C 110.710938 192.675781 110.917969 192.472656 110.917969 192.21875 C 110.917969 191.964844 110.710938 191.757812 110.457031 191.757812 Z M 110.457031 191.757812 " fill-opacity="1" fill-rule="nonzero"/><path fill="#ffffff" d="M 110.457031 193.074219 L 109.910156 193.074219 C 109.65625 193.074219 109.453125 193.277344 109.453125 193.53125 C 109.453125 193.785156 109.65625 193.992188 109.910156 193.992188 L 110.457031 193.992188 C 110.710938 193.992188 110.917969 193.785156 110.917969 193.53125 C 110.917969 193.277344 110.710938 193.074219 110.457031 193.074219 Z M 110.457031 193.074219 " fill-opacity="1" fill-rule="nonzero"/><g clip-path="url(#2c595f0fd7)"><path fill="#ffffff" d="M 147.070312 188.46875 L 145.53125 188.152344 L 145.53125 187.070312 C 145.53125 186.871094 145.402344 186.691406 145.207031 186.632812 L 142.371094 185.753906 L 142.371094 183.320312 C 142.371094 181.945312 141.253906 180.828125 139.878906 180.828125 L 135.683594 180.828125 L 135.683594 170.386719 C 135.683594 169.601562 135.039062 168.960938 134.253906 168.960938 C 133.464844 168.960938 132.824219 169.601562 132.824219 170.386719 L 132.824219 175.917969 L 126.839844 179.351562 L 120.851562 175.917969 L 120.851562 170.386719 C 120.851562 169.601562 120.210938 168.960938 119.421875 168.960938 C 118.636719 168.960938 117.996094 169.601562 117.996094 170.386719 L 117.996094 180.828125 L 113.796875 180.828125 C 112.421875 180.828125 111.304688 181.945312 111.304688 183.320312 L 111.304688 185.753906 L 108.46875 186.632812 C 108.277344 186.691406 108.144531 186.871094 108.144531 187.070312 L 108.144531 188.152344 L 106.605469 188.46875 C 106.394531 188.515625 106.238281 188.703125 106.238281 188.917969 L 106.238281 193.285156 C 106.238281 193.503906 106.390625 193.691406 106.605469 193.734375 L 108.144531 194.050781 L 108.144531 195.132812 C 108.144531 195.335938 108.277344 195.511719 108.46875 195.570312 L 111.304688 196.453125 L 111.304688 198.882812 C 111.304688 200.257812 112.421875 201.378906 113.796875 201.378906 L 139.878906 201.378906 C 141.253906 201.378906 142.371094 200.257812 142.371094 198.882812 L 142.371094 196.453125 L 145.207031 195.570312 C 145.398438 195.511719 145.53125 195.335938 145.53125 195.132812 L 145.53125 194.050781 L 147.070312 193.734375 C 147.285156 193.691406 147.4375 193.503906 147.4375 193.285156 L 147.4375 188.917969 C 147.4375 188.703125 147.285156 188.515625 147.070312 188.46875 Z M 118.910156 170.386719 C 118.910156 170.105469 119.140625 169.875 119.421875 169.875 C 119.707031 169.875 119.933594 170.105469 119.933594 170.386719 L 119.933594 176.183594 C 119.933594 176.347656 120.023438 176.5 120.164062 176.582031 L 126.609375 180.277344 C 126.753906 180.359375 126.925781 180.359375 127.066406 180.277344 L 133.511719 176.582031 C 133.65625 176.5 133.742188 176.347656 133.742188 176.183594 L 133.742188 170.386719 C 133.742188 170.105469 133.972656 169.875 134.253906 169.875 C 134.535156 169.875 134.765625 170.105469 134.765625 170.386719 L 134.765625 180.828125 L 133.742188 180.828125 L 133.742188 178.425781 C 133.742188 178.265625 133.65625 178.113281 133.511719 178.03125 C 133.371094 177.949219 133.199219 177.949219 133.054688 178.03125 L 128.175781 180.828125 L 125.5 180.828125 L 120.621094 178.03125 C 120.480469 177.949219 120.304688 177.949219 120.164062 178.03125 C 120.019531 178.113281 119.933594 178.265625 119.933594 178.425781 L 119.933594 180.828125 L 118.910156 180.828125 Z M 130.019531 180.828125 L 132.824219 179.21875 L 132.824219 180.828125 Z M 123.660156 180.828125 L 120.851562 180.828125 L 120.851562 179.21875 Z M 107.15625 192.914062 L 107.15625 189.292969 L 108.144531 189.089844 L 108.144531 193.117188 Z M 109.0625 194.796875 L 109.0625 187.410156 L 111.304688 186.710938 L 111.304688 195.492188 Z M 119.539062 200.460938 L 119.539062 195.628906 C 119.539062 195.25 119.847656 194.941406 120.226562 194.941406 L 133.453125 194.941406 C 133.828125 194.941406 134.136719 195.25 134.136719 195.628906 L 134.136719 200.460938 Z M 141.453125 198.886719 C 141.453125 199.753906 140.746094 200.460938 139.878906 200.460938 L 135.050781 200.460938 L 135.050781 195.628906 C 135.050781 194.746094 134.332031 194.027344 133.449219 194.027344 L 120.226562 194.027344 C 119.34375 194.027344 118.625 194.746094 118.625 195.628906 L 118.625 200.460938 L 113.796875 200.460938 C 112.929688 200.460938 112.222656 199.753906 112.222656 198.886719 L 112.222656 183.320312 C 112.222656 182.453125 112.929688 181.746094 113.796875 181.746094 L 139.878906 181.746094 C 140.746094 181.746094 141.453125 182.453125 141.453125 183.320312 Z M 144.613281 194.796875 L 142.371094 195.492188 L 142.371094 186.710938 L 144.613281 187.410156 Z M 146.519531 192.914062 L 145.53125 193.117188 L 145.53125 189.089844 L 146.519531 189.292969 Z M 146.519531 192.914062 " fill-opacity="1" fill-rule="nonzero"/></g><path fill="#ffffff" d="M 143.765625 190.445312 L 143.21875 190.445312 C 142.964844 190.445312 142.761719 190.652344 142.761719 190.90625 C 142.761719 191.15625 142.964844 191.363281 143.21875 191.363281 L 143.765625 191.363281 C 144.019531 191.363281 144.226562 191.15625 144.226562 190.90625 C 144.226562 190.652344 144.019531 190.445312 143.765625 190.445312 Z M 143.765625 190.445312 " fill-opacity="1" fill-rule="nonzero"/><path fill="#ffffff" d="M 143.765625 189.132812 L 143.21875 189.132812 C 142.964844 189.132812 142.761719 189.335938 142.761719 189.589844 C 142.761719 189.84375 142.964844 190.050781 143.21875 190.050781 L 143.765625 190.050781 C 144.019531 190.050781 144.226562 189.84375 144.226562 189.589844 C 144.226562 189.335938 144.019531 189.132812 143.765625 189.132812 Z M 143.765625 189.132812 " fill-opacity="1" fill-rule="nonzero"/><path fill="#ffffff" d="M 143.765625 187.816406 L 143.21875 187.816406 C 142.964844 187.816406 142.761719 188.023438 142.761719 188.277344 C 142.761719 188.53125 142.964844 188.734375 143.21875 188.734375 L 143.765625 188.734375 C 144.019531 188.734375 144.226562 188.53125 144.226562 188.277344 C 144.226562 188.023438 144.019531 187.816406 143.765625 187.816406 Z M 143.765625 187.816406 " fill-opacity="1" fill-rule="nonzero"/><path fill="#ffffff" d="M 143.765625 191.757812 L 143.21875 191.757812 C 142.964844 191.757812 142.761719 191.964844 142.761719 192.21875 C 142.761719 192.472656 142.964844 192.675781 143.21875 192.675781 L 143.765625 192.675781 C 144.019531 192.675781 144.226562 192.472656 144.226562 192.21875 C 144.226562 191.964844 144.019531 191.757812 143.765625 191.757812 Z M 143.765625 191.757812 " fill-opacity="1" fill-rule="nonzero"/><path fill="#ffffff" d="M 143.765625 193.074219 L 143.21875 193.074219 C 142.964844 193.074219 142.761719 193.277344 142.761719 193.53125 C 142.761719 193.785156 142.964844 193.992188 143.21875 193.992188 L 143.765625 193.992188 C 144.019531 193.992188 144.226562 193.785156 144.226562 193.53125 C 144.226562 193.277344 144.019531 193.074219 143.765625 193.074219 Z M 143.765625 193.074219 " fill-opacity="1" fill-rule="nonzero"/><path fill="#ffffff" d="M 137.917969 184.191406 L 115.757812 184.191406 C 114.90625 184.191406 114.210938 184.886719 114.210938 185.738281 L 114.210938 191.3125 C 114.210938 192.167969 114.90625 192.859375 115.757812 192.859375 L 137.917969 192.859375 C 138.769531 192.859375 139.464844 192.167969 139.464844 191.3125 L 139.464844 185.738281 C 139.464844 184.886719 138.769531 184.191406 137.917969 184.191406 Z M 138.546875 191.3125 C 138.546875 191.660156 138.265625 191.945312 137.917969 191.945312 L 115.757812 191.945312 C 115.410156 191.945312 115.128906 191.660156 115.128906 191.3125 L 115.128906 185.738281 C 115.128906 185.390625 115.410156 185.109375 115.757812 185.109375 L 137.917969 185.109375 C 138.265625 185.109375 138.546875 185.390625 138.546875 185.738281 Z M 138.546875 191.3125 " fill-opacity="1" fill-rule="nonzero"/><path fill="#ffffff" d="M 126.121094 176.464844 C 125.722656 176.859375 125.722656 177.503906 126.121094 177.902344 C 126.515625 178.296875 127.160156 178.296875 127.558594 177.902344 C 127.953125 177.503906 127.953125 176.859375 127.558594 176.464844 C 127.160156 176.066406 126.515625 176.066406 126.121094 176.464844 Z M 126.121094 176.464844 " fill-opacity="1" fill-rule="nonzero"/><path fill="#ffffff" d="M 128.59375 175.886719 C 128.710938 175.886719 128.828125 175.839844 128.917969 175.75 C 129.097656 175.570312 129.097656 175.28125 128.917969 175.101562 C 127.769531 173.957031 125.90625 173.957031 124.757812 175.101562 C 124.582031 175.28125 124.582031 175.570312 124.757812 175.75 C 124.9375 175.929688 125.230469 175.929688 125.40625 175.75 C 126.195312 174.960938 127.480469 174.960938 128.269531 175.75 C 128.359375 175.839844 128.476562 175.886719 128.59375 175.886719 Z M 128.59375 175.886719 " fill-opacity="1" fill-rule="nonzero"/><path fill="#ffffff" d="M 129.714844 174.765625 C 129.832031 174.765625 129.949219 174.71875 130.039062 174.628906 C 130.21875 174.449219 130.21875 174.160156 130.039062 173.980469 C 128.273438 172.21875 125.402344 172.21875 123.636719 173.980469 C 123.457031 174.160156 123.457031 174.449219 123.636719 174.628906 C 123.816406 174.808594 124.105469 174.808594 124.285156 174.628906 C 125.695312 173.222656 127.984375 173.222656 129.390625 174.628906 C 129.480469 174.71875 129.597656 174.765625 129.714844 174.765625 Z M 129.714844 174.765625 " fill-opacity="1" fill-rule="nonzero"/><path fill="#ffffff" d="M 123.132812 173.476562 C 125.175781 171.433594 128.5 171.433594 130.542969 173.476562 C 130.632812 173.566406 130.75 173.609375 130.867188 173.609375 C 130.984375 173.609375 131.101562 173.566406 131.191406 173.476562 C 131.371094 173.296875 131.371094 173.007812 131.191406 172.828125 C 128.792969 170.429688 124.886719 170.429688 122.484375 172.828125 C 122.304688 173.007812 122.304688 173.296875 122.484375 173.476562 C 122.664062 173.65625 122.953125 173.65625 123.132812 173.476562 Z M 123.132812 173.476562 " fill-opacity="1" fill-rule="nonzero"/><g fill="#bb2700" fill-opacity="1"><g transform="translate(162.036615, 183.260444)"><g/></g></g><g fill="#bb2700" fill-opacity="1"><g transform="translate(171.173688, 183.260444)"><g><path d="M 0 -10.90625 L 8.421875 -10.90625 L 8.421875 -10.34375 L 0 -10.34375 Z M 0 -10.90625 "/></g></g></g><g fill="#bb2700" fill-opacity="1"><g transform="translate(180.495165, 183.260444)"><g><path d="M 0.28125 -8.609375 C 0.675781 -7.003906 1.3125 -5.59375 2.1875 -4.375 C 3.070312 -3.164062 4.128906 -2.226562 5.359375 -1.5625 C 6.585938 -0.894531 7.890625 -0.5625 9.265625 -0.5625 C 9.859375 -0.5625 10.5 -0.632812 11.1875 -0.78125 C 11.875 -0.925781 12.519531 -1.15625 13.125 -1.46875 C 13.726562 -1.78125 14.234375 -2.195312 14.640625 -2.71875 C 15.046875 -3.25 15.257812 -3.910156 15.28125 -4.703125 C 15.320312 -5.640625 15.0625 -6.476562 14.5 -7.21875 C 13.9375 -7.957031 13.257812 -8.503906 12.46875 -8.859375 C 11.59375 -9.265625 10.65625 -9.570312 9.65625 -9.78125 C 8.664062 -9.988281 7.660156 -10.203125 6.640625 -10.421875 C 5.617188 -10.640625 4.640625 -10.945312 3.703125 -11.34375 C 3.148438 -11.59375 2.585938 -11.90625 2.015625 -12.28125 C 1.441406 -12.65625 0.960938 -13.117188 0.578125 -13.671875 C 0.191406 -14.222656 0 -14.859375 0 -15.578125 C 0 -16.304688 0.175781 -16.96875 0.53125 -17.5625 C 0.882812 -18.15625 1.332031 -18.675781 1.875 -19.125 C 2.414062 -19.570312 2.953125 -19.929688 3.484375 -20.203125 C 4.253906 -20.578125 5.070312 -20.859375 5.9375 -21.046875 C 6.800781 -21.234375 7.679688 -21.328125 8.578125 -21.328125 C 10.171875 -21.328125 11.726562 -21.078125 13.25 -20.578125 C 14.769531 -20.078125 16.085938 -19.367188 17.203125 -18.453125 L 16.046875 -15.4375 C 15.015625 -16.945312 14 -18.140625 13 -19.015625 C 12 -19.890625 10.820312 -20.429688 9.46875 -20.640625 C 8.4375 -20.804688 7.382812 -20.769531 6.3125 -20.53125 C 5.238281 -20.289062 4.304688 -19.773438 3.515625 -18.984375 C 2.753906 -18.171875 2.460938 -17.332031 2.640625 -16.46875 C 2.816406 -15.613281 3.441406 -14.894531 4.515625 -14.3125 C 5.367188 -13.875 6.304688 -13.535156 7.328125 -13.296875 C 8.347656 -13.054688 9.382812 -12.828125 10.4375 -12.609375 C 11.5 -12.390625 12.5 -12.097656 13.4375 -11.734375 C 14.375 -11.367188 15.171875 -10.832031 15.828125 -10.125 C 16.410156 -9.507812 16.804688 -8.757812 17.015625 -7.875 C 17.222656 -6.988281 17.253906 -6.085938 17.109375 -5.171875 C 16.960938 -4.253906 16.640625 -3.457031 16.140625 -2.78125 C 15.648438 -2.09375 15.015625 -1.546875 14.234375 -1.140625 C 13.453125 -0.734375 12.617188 -0.441406 11.734375 -0.265625 C 10.847656 -0.0859375 9.972656 0 9.109375 0 C 7.398438 0 5.765625 -0.269531 4.203125 -0.8125 C 2.648438 -1.351562 1.25 -2.171875 0 -3.265625 L 0 -8.609375 Z M 0.28125 -8.609375 "/></g></g></g><g fill="#bb2700" fill-opacity="1"><g transform="translate(198.670494, 183.260444)"><g><path d="M 10.65625 -21.328125 C 9.1875 -21.328125 7.804688 -21.050781 6.515625 -20.5 C 5.222656 -19.945312 4.085938 -19.179688 3.109375 -18.203125 C 2.140625 -17.222656 1.378906 -16.085938 0.828125 -14.796875 C 0.273438 -13.515625 0 -12.132812 0 -10.65625 C 0 -9.1875 0.273438 -7.804688 0.828125 -6.515625 C 1.378906 -5.222656 2.140625 -4.085938 3.109375 -3.109375 C 4.085938 -2.140625 5.222656 -1.378906 6.515625 -0.828125 C 7.804688 -0.273438 9.1875 0 10.65625 0 C 12.132812 0 13.515625 -0.273438 14.796875 -0.828125 C 16.085938 -1.378906 17.222656 -2.140625 18.203125 -3.109375 C 19.179688 -4.085938 19.945312 -5.222656 20.5 -6.515625 C 21.050781 -7.804688 21.328125 -9.1875 21.328125 -10.65625 C 21.328125 -12.132812 21.050781 -13.515625 20.5 -14.796875 C 19.945312 -16.085938 19.179688 -17.222656 18.203125 -18.203125 C 17.222656 -19.179688 16.085938 -19.945312 14.796875 -20.5 C 13.515625 -21.050781 12.132812 -21.328125 10.65625 -21.328125 Z M 7.234375 -20.140625 C 8.234375 -20.492188 9.25 -20.582031 10.28125 -20.40625 C 11.320312 -20.226562 12.332031 -19.820312 13.3125 -19.1875 C 14.289062 -18.550781 15.171875 -17.726562 15.953125 -16.71875 C 16.742188 -15.71875 17.378906 -14.5625 17.859375 -13.25 C 18.335938 -11.9375 18.597656 -10.640625 18.640625 -9.359375 C 18.679688 -8.085938 18.523438 -6.894531 18.171875 -5.78125 C 17.816406 -4.664062 17.296875 -3.703125 16.609375 -2.890625 C 15.921875 -2.085938 15.082031 -1.507812 14.09375 -1.15625 C 13.09375 -0.800781 12.066406 -0.710938 11.015625 -0.890625 C 9.960938 -1.066406 8.953125 -1.472656 7.984375 -2.109375 C 7.023438 -2.742188 6.148438 -3.5625 5.359375 -4.5625 C 4.566406 -5.570312 3.929688 -6.734375 3.453125 -8.046875 C 2.984375 -9.347656 2.726562 -10.644531 2.6875 -11.9375 C 2.644531 -13.226562 2.789062 -14.421875 3.125 -15.515625 C 3.46875 -16.617188 3.988281 -17.578125 4.6875 -18.390625 C 5.382812 -19.203125 6.234375 -19.785156 7.234375 -20.140625 Z M 7.234375 -20.140625 "/></g></g></g><g fill="#bb2700" fill-opacity="1"><g transform="translate(220.960991, 183.260444)"><g><path d="M 18.984375 -4.390625 L 18.984375 -19.640625 L 12.09375 0 L 8.921875 0 L 2.5625 -18.265625 L 2.5625 -4.390625 C 2.5625 -2.753906 2.722656 -1.65625 3.046875 -1.09375 C 3.378906 -0.53125 3.878906 -0.257812 4.546875 -0.28125 L 4.546875 0 L 0 0 L 0 -0.28125 C 0.664062 -0.257812 1.164062 -0.53125 1.5 -1.09375 C 1.832031 -1.65625 2 -2.753906 2 -4.390625 L 2 -16.890625 C 2 -18.554688 1.832031 -19.675781 1.5 -20.25 C 1.164062 -20.820312 0.664062 -21.085938 0 -21.046875 L 0 -21.328125 L 4.640625 -21.328125 L 11.78125 -0.78125 L 18.984375 -21.328125 L 23.9375 -21.328125 L 23.9375 -21.046875 C 23.269531 -21.085938 22.769531 -20.820312 22.4375 -20.25 C 22.101562 -19.675781 21.9375 -18.554688 21.9375 -16.890625 L 21.9375 -4.390625 C 21.9375 -2.753906 22.101562 -1.65625 22.4375 -1.09375 C 22.769531 -0.53125 23.269531 -0.257812 23.9375 -0.28125 L 23.9375 0 L 16.984375 0 L 16.984375 -0.28125 C 17.648438 -0.257812 18.148438 -0.53125 18.484375 -1.09375 C 18.816406 -1.65625 18.984375 -2.753906 18.984375 -4.390625 Z M 18.984375 -4.390625 "/></g></g></g><g fill="#bb2700" fill-opacity="1"><g transform="translate(245.807884, 183.260444)"><g><path d="M 18.984375 -4.390625 L 18.984375 -19.640625 L 12.09375 0 L 8.921875 0 L 2.5625 -18.265625 L 2.5625 -4.390625 C 2.5625 -2.753906 2.722656 -1.65625 3.046875 -1.09375 C 3.378906 -0.53125 3.878906 -0.257812 4.546875 -0.28125 L 4.546875 0 L 0 0 L 0 -0.28125 C 0.664062 -0.257812 1.164062 -0.53125 1.5 -1.09375 C 1.832031 -1.65625 2 -2.753906 2 -4.390625 L 2 -16.890625 C 2 -18.554688 1.832031 -19.675781 1.5 -20.25 C 1.164062 -20.820312 0.664062 -21.085938 0 -21.046875 L 0 -21.328125 L 4.640625 -21.328125 L 11.78125 -0.78125 L 18.984375 -21.328125 L 23.9375 -21.328125 L 23.9375 -21.046875 C 23.269531 -21.085938 22.769531 -20.820312 22.4375 -20.25 C 22.101562 -19.675781 21.9375 -18.554688 21.9375 -16.890625 L 21.9375 -4.390625 C 21.9375 -2.753906 22.101562 -1.65625 22.4375 -1.09375 C 22.769531 -0.53125 23.269531 -0.257812 23.9375 -0.28125 L 23.9375 0 L 16.984375 0 L 16.984375 -0.28125 C 17.648438 -0.257812 18.148438 -0.53125 18.484375 -1.09375 C 18.816406 -1.65625 18.984375 -2.753906 18.984375 -4.390625 Z M 18.984375 -4.390625 "/></g></g></g><g fill="#bb2700" fill-opacity="1"><g transform="translate(270.654777, 183.260444)"><g><path d="M 0 0 L 0 -0.28125 C 0.664062 -0.257812 1.164062 -0.53125 1.5 -1.09375 C 1.832031 -1.65625 2 -2.753906 2 -4.390625 L 2 -16.890625 C 2 -18.554688 1.832031 -19.675781 1.5 -20.25 C 1.164062 -20.820312 0.664062 -21.085938 0 -21.046875 L 0 -21.328125 L 16.046875 -21.328125 L 17.359375 -16.609375 L 17.078125 -16.609375 C 16.765625 -17.421875 16.253906 -18.140625 15.546875 -18.765625 C 14.847656 -19.390625 14.066406 -19.878906 13.203125 -20.234375 C 12.335938 -20.585938 11.476562 -20.765625 10.625 -20.765625 L 4.953125 -20.765625 L 4.953125 -9.9375 C 5.492188 -11.125 6.210938 -11.859375 7.109375 -12.140625 C 8.003906 -12.421875 9.070312 -12.351562 10.3125 -11.9375 C 10.832031 -11.769531 11.359375 -11.597656 11.890625 -11.421875 C 12.421875 -11.242188 12.929688 -11.203125 13.421875 -11.296875 C 13.910156 -11.390625 14.351562 -11.738281 14.75 -12.34375 L 15 -12.21875 C 14.476562 -10.675781 13.742188 -9.703125 12.796875 -9.296875 C 11.847656 -8.898438 10.691406 -8.925781 9.328125 -9.375 C 8.828125 -9.539062 8.3125 -9.707031 7.78125 -9.875 C 7.25 -10.039062 6.742188 -10.085938 6.265625 -10.015625 C 5.785156 -9.941406 5.347656 -9.628906 4.953125 -9.078125 L 4.953125 -0.5625 L 10.4375 -0.5625 C 11.457031 -0.5625 12.476562 -0.785156 13.5 -1.234375 C 14.519531 -1.679688 15.4375 -2.28125 16.25 -3.03125 C 17.070312 -3.789062 17.671875 -4.648438 18.046875 -5.609375 L 18.296875 -5.609375 L 16.515625 0 Z M 0 0 "/></g></g></g><g fill="#bb2700" fill-opacity="1"><g transform="translate(289.827716, 183.260444)"><g><path d="M 4.953125 -16.890625 L 4.953125 -0.5625 L 10.15625 -0.5625 C 11.175781 -0.5625 12.195312 -0.785156 13.21875 -1.234375 C 14.238281 -1.679688 15.15625 -2.28125 15.96875 -3.03125 C 16.789062 -3.789062 17.390625 -4.648438 17.765625 -5.609375 L 18.046875 -5.609375 L 16.234375 0 L 0 0 L 0 -0.28125 C 0.664062 -0.257812 1.164062 -0.53125 1.5 -1.09375 C 1.832031 -1.65625 2 -2.753906 2 -4.390625 L 2 -16.890625 C 2 -18.554688 1.832031 -19.675781 1.5 -20.25 C 1.164062 -20.820312 0.664062 -21.085938 0 -21.046875 L 0 -21.328125 L 6.953125 -21.328125 L 6.953125 -21.046875 C 6.285156 -21.085938 5.785156 -20.820312 5.453125 -20.25 C 5.117188 -19.675781 4.953125 -18.554688 4.953125 -16.890625 Z M 4.953125 -16.890625 "/></g></g></g><g fill="#bb2700" fill-opacity="1"><g transform="translate(308.813602, 183.260444)"><g><path d="M 6.953125 -21.328125 L 6.953125 -21.046875 C 6.285156 -21.085938 5.785156 -20.820312 5.453125 -20.25 C 5.117188 -19.675781 4.953125 -18.554688 4.953125 -16.890625 L 4.953125 -4.390625 C 4.953125 -2.753906 5.117188 -1.65625 5.453125 -1.09375 C 5.785156 -0.53125 6.285156 -0.257812 6.953125 -0.28125 L 6.953125 0 L 0 0 L 0 -0.28125 C 0.664062 -0.257812 1.164062 -0.53125 1.5 -1.09375 C 1.832031 -1.65625 2 -2.753906 2 -4.390625 L 2 -16.890625 C 2 -18.554688 1.832031 -19.675781 1.5 -20.25 C 1.164062 -20.820312 0.664062 -21.085938 0 -21.046875 L 0 -21.328125 Z M 6.953125 -21.328125 "/></g></g></g><g fill="#bb2700" fill-opacity="1"><g transform="translate(316.669832, 183.260444)"><g><path d="M 0 0 L 0 -0.28125 C 0.664062 -0.257812 1.164062 -0.53125 1.5 -1.09375 C 1.832031 -1.65625 2 -2.753906 2 -4.390625 L 2 -16.890625 C 2 -18.554688 1.832031 -19.675781 1.5 -20.25 C 1.164062 -20.820312 0.664062 -21.085938 0 -21.046875 L 0 -21.328125 L 16.046875 -21.328125 L 17.359375 -16.609375 L 17.078125 -16.609375 C 16.765625 -17.421875 16.253906 -18.140625 15.546875 -18.765625 C 14.847656 -19.390625 14.066406 -19.878906 13.203125 -20.234375 C 12.335938 -20.585938 11.476562 -20.765625 10.625 -20.765625 L 4.953125 -20.765625 L 4.953125 -9.9375 C 5.492188 -11.125 6.210938 -11.859375 7.109375 -12.140625 C 8.003906 -12.421875 9.070312 -12.351562 10.3125 -11.9375 C 10.832031 -11.769531 11.359375 -11.597656 11.890625 -11.421875 C 12.421875 -11.242188 12.929688 -11.203125 13.421875 -11.296875 C 13.910156 -11.390625 14.351562 -11.738281 14.75 -12.34375 L 15 -12.21875 C 14.476562 -10.675781 13.742188 -9.703125 12.796875 -9.296875 C 11.847656 -8.898438 10.691406 -8.925781 9.328125 -9.375 C 8.828125 -9.539062 8.3125 -9.707031 7.78125 -9.875 C 7.25 -10.039062 6.742188 -10.085938 6.265625 -10.015625 C 5.785156 -9.941406 5.347656 -9.628906 4.953125 -9.078125 L 4.953125 -0.5625 L 10.4375 -0.5625 C 11.457031 -0.5625 12.476562 -0.785156 13.5 -1.234375 C 14.519531 -1.679688 15.4375 -2.28125 16.25 -3.03125 C 17.070312 -3.789062 17.671875 -4.648438 18.046875 -5.609375 L 18.296875 -5.609375 L 16.515625 0 Z M 0 0 "/></g></g></g><g fill="#bb2700" fill-opacity="1"><g transform="translate(335.842771, 183.260444)"><g><path d="M 4.953125 -4.390625 C 4.953125 -2.753906 5.117188 -1.65625 5.453125 -1.09375 C 5.785156 -0.53125 6.285156 -0.257812 6.953125 -0.28125 L 6.953125 0 L 0 0 L 0 -0.28125 C 0.664062 -0.257812 1.164062 -0.53125 1.5 -1.09375 C 1.832031 -1.65625 2 -2.753906 2 -4.390625 L 2 -16.890625 C 2 -18.554688 1.832031 -19.675781 1.5 -20.25 C 1.164062 -20.820312 0.664062 -21.085938 0 -21.046875 L 0 -21.328125 L 11.625 -21.328125 C 12.476562 -21.328125 13.332031 -21.207031 14.1875 -20.96875 C 15.039062 -20.726562 15.753906 -20.316406 16.328125 -19.734375 C 16.910156 -19.148438 17.203125 -18.347656 17.203125 -17.328125 C 17.203125 -16.304688 16.90625 -15.472656 16.3125 -14.828125 C 15.726562 -14.191406 14.972656 -13.664062 14.046875 -13.25 C 13.117188 -12.832031 12.164062 -12.445312 11.1875 -12.09375 C 12.082031 -12.007812 12.789062 -11.75 13.3125 -11.3125 C 13.832031 -10.875 14.207031 -10.3125 14.4375 -9.625 C 14.582031 -9.195312 14.769531 -8.613281 15 -7.875 C 15.226562 -7.132812 15.472656 -6.359375 15.734375 -5.546875 C 16.003906 -4.734375 16.285156 -3.988281 16.578125 -3.3125 C 16.867188 -2.644531 17.148438 -2.15625 17.421875 -1.84375 C 17.648438 -1.59375 17.925781 -1.398438 18.25 -1.265625 C 18.570312 -1.128906 18.890625 -1.195312 19.203125 -1.46875 L 19.421875 -1.28125 C 19.210938 -0.820312 18.898438 -0.492188 18.484375 -0.296875 C 18.066406 -0.0976562 17.628906 0 17.171875 0 C 16.398438 0 15.773438 -0.179688 15.296875 -0.546875 C 14.828125 -0.910156 14.445312 -1.375 14.15625 -1.9375 C 13.78125 -2.625 13.453125 -3.390625 13.171875 -4.234375 C 12.890625 -5.085938 12.632812 -5.941406 12.40625 -6.796875 C 12.175781 -7.648438 11.925781 -8.429688 11.65625 -9.140625 C 11.320312 -10.066406 10.882812 -10.707031 10.34375 -11.0625 C 9.800781 -11.414062 9.054688 -11.363281 8.109375 -10.90625 C 7.523438 -10.632812 6.9375 -10.257812 6.34375 -9.78125 C 5.75 -9.3125 5.285156 -8.890625 4.953125 -8.515625 Z M 4.953125 -20.765625 L 4.953125 -9.328125 C 5.367188 -9.734375 5.820312 -10.113281 6.3125 -10.46875 C 6.800781 -10.820312 7.316406 -11.164062 7.859375 -11.5 C 8.359375 -11.832031 8.960938 -12.203125 9.671875 -12.609375 C 10.390625 -13.015625 11.097656 -13.457031 11.796875 -13.9375 C 12.492188 -14.414062 13.070312 -14.941406 13.53125 -15.515625 C 13.988281 -16.097656 14.21875 -16.742188 14.21875 -17.453125 C 14.238281 -18.390625 13.988281 -19.09375 13.46875 -19.5625 C 12.945312 -20.03125 12.300781 -20.347656 11.53125 -20.515625 C 10.757812 -20.679688 10.015625 -20.765625 9.296875 -20.765625 Z M 4.953125 -20.765625 "/></g></g></g><g fill="#bb2700" fill-opacity="1"><g transform="translate(166.826978, 207.837096)"><g><path d="M 4.046875 0 L 2.625 0 L 0.5 -9.25 L 1.578125 -9.25 L 3.3125 -1.59375 L 3.46875 -1.59375 L 5.546875 -9.25 L 6.546875 -9.25 L 8.625 -1.59375 L 8.78125 -1.59375 L 10.53125 -9.25 L 11.578125 -9.25 L 9.46875 0 L 8.03125 0 L 6.109375 -7 L 5.96875 -7 Z M 4.046875 0 "/></g></g></g><g fill="#bb2700" fill-opacity="1"><g transform="translate(178.902461, 207.837096)"><g><path d="M 1.21875 0 L 1.21875 -9.78125 L 2.25 -9.78125 L 2.25 -5.984375 L 2.375 -5.953125 C 2.875 -6.722656 3.59375 -7.109375 4.53125 -7.109375 C 5.375 -7.109375 5.984375 -6.894531 6.359375 -6.46875 C 6.734375 -6.039062 6.921875 -5.378906 6.921875 -4.484375 L 6.921875 0 L 5.890625 0 L 5.890625 -4.46875 C 5.890625 -4.882812 5.835938 -5.21875 5.734375 -5.46875 C 5.628906 -5.726562 5.460938 -5.914062 5.234375 -6.03125 C 5.003906 -6.144531 4.707031 -6.203125 4.34375 -6.203125 C 3.707031 -6.203125 3.195312 -6 2.8125 -5.59375 C 2.4375 -5.1875 2.25 -4.515625 2.25 -3.578125 L 2.25 0 Z M 1.21875 0 "/></g></g></g><g fill="#bb2700" fill-opacity="1"><g transform="translate(186.935915, 207.837096)"><g><path d="M 2.875 0.140625 C 2.1875 0.140625 1.648438 -0.0351562 1.265625 -0.390625 C 0.878906 -0.753906 0.6875 -1.269531 0.6875 -1.9375 C 0.6875 -2.351562 0.769531 -2.703125 0.9375 -2.984375 C 1.113281 -3.273438 1.378906 -3.507812 1.734375 -3.6875 C 2.097656 -3.863281 2.566406 -4 3.140625 -4.09375 C 3.648438 -4.175781 4.035156 -4.269531 4.296875 -4.375 C 4.554688 -4.488281 4.734375 -4.609375 4.828125 -4.734375 C 4.921875 -4.867188 4.96875 -5.035156 4.96875 -5.234375 C 4.96875 -5.546875 4.859375 -5.785156 4.640625 -5.953125 C 4.421875 -6.117188 4.070312 -6.203125 3.59375 -6.203125 C 3.144531 -6.203125 2.757812 -6.113281 2.4375 -5.9375 C 2.113281 -5.769531 1.816406 -5.515625 1.546875 -5.171875 L 1.421875 -5.171875 L 0.90625 -5.875 C 1.207031 -6.25 1.582031 -6.546875 2.03125 -6.765625 C 2.488281 -6.992188 3.007812 -7.109375 3.59375 -7.109375 C 4.414062 -7.109375 5.019531 -6.925781 5.40625 -6.5625 C 5.800781 -6.207031 6 -5.710938 6 -5.078125 L 6 -1.375 C 6 -0.988281 6.160156 -0.796875 6.484375 -0.796875 C 6.597656 -0.796875 6.707031 -0.8125 6.8125 -0.84375 L 6.890625 -0.828125 L 7.015625 -0.109375 C 6.941406 -0.0546875 6.84375 -0.0195312 6.71875 0 C 6.59375 0.03125 6.460938 0.046875 6.328125 0.046875 C 5.941406 0.046875 5.648438 -0.0351562 5.453125 -0.203125 C 5.265625 -0.367188 5.140625 -0.617188 5.078125 -0.953125 L 4.953125 -0.96875 C 4.753906 -0.59375 4.484375 -0.3125 4.140625 -0.125 C 3.804688 0.0507812 3.382812 0.140625 2.875 0.140625 Z M 3.109375 -0.6875 C 3.492188 -0.6875 3.828125 -0.773438 4.109375 -0.953125 C 4.398438 -1.140625 4.617188 -1.394531 4.765625 -1.71875 C 4.921875 -2.039062 5 -2.414062 5 -2.84375 L 5 -3.71875 L 4.875 -3.75 C 4.71875 -3.644531 4.523438 -3.550781 4.296875 -3.46875 C 4.078125 -3.394531 3.769531 -3.332031 3.375 -3.28125 C 2.96875 -3.21875 2.644531 -3.128906 2.40625 -3.015625 C 2.164062 -2.910156 1.992188 -2.769531 1.890625 -2.59375 C 1.796875 -2.414062 1.75 -2.195312 1.75 -1.9375 C 1.75 -1.53125 1.867188 -1.21875 2.109375 -1 C 2.347656 -0.789062 2.679688 -0.6875 3.109375 -0.6875 Z M 3.109375 -0.6875 "/></g></g></g><g fill="#bb2700" fill-opacity="1"><g transform="translate(194.153372, 207.837096)"><g><path d="M 4.71875 -1.109375 L 5.046875 -0.359375 C 4.878906 -0.203125 4.660156 -0.0820312 4.390625 0 C 4.128906 0.09375 3.84375 0.140625 3.53125 0.140625 C 2.195312 0.140625 1.53125 -0.535156 1.53125 -1.890625 L 1.53125 -6.140625 L 0.3125 -6.140625 L 0.3125 -6.984375 L 1.53125 -6.984375 L 1.53125 -8.453125 L 2.5625 -8.625 L 2.5625 -6.984375 L 4.8125 -6.984375 L 4.8125 -6.140625 L 2.5625 -6.140625 L 2.5625 -2 C 2.5625 -1.195312 2.910156 -0.796875 3.609375 -0.796875 C 3.984375 -0.796875 4.304688 -0.898438 4.578125 -1.109375 Z M 4.71875 -1.109375 "/></g></g></g><g fill="#bb2700" fill-opacity="1"><g transform="translate(199.466838, 207.837096)"><g><path d="M 3.03125 -7.796875 L 2.28125 -7.796875 L 0.65625 -9.640625 L 0.65625 -9.78125 L 1.953125 -9.78125 L 3.03125 -7.921875 Z M 3.03125 -7.796875 "/></g></g></g><g fill="#bb2700" fill-opacity="1"><g transform="translate(203.173612, 207.837096)"><g><path d="M 3.1875 0.140625 C 2.75 0.140625 2.34375 0.0820312 1.96875 -0.03125 C 1.59375 -0.15625 1.273438 -0.316406 1.015625 -0.515625 C 0.753906 -0.722656 0.570312 -0.953125 0.46875 -1.203125 L 1.078125 -1.828125 L 1.21875 -1.828125 C 1.445312 -1.484375 1.71875 -1.222656 2.03125 -1.046875 C 2.351562 -0.878906 2.738281 -0.796875 3.1875 -0.796875 C 3.695312 -0.796875 4.082031 -0.894531 4.34375 -1.09375 C 4.613281 -1.289062 4.75 -1.566406 4.75 -1.921875 C 4.75 -2.203125 4.664062 -2.429688 4.5 -2.609375 C 4.34375 -2.785156 4.082031 -2.921875 3.71875 -3.015625 L 2.546875 -3.296875 C 1.921875 -3.453125 1.460938 -3.691406 1.171875 -4.015625 C 0.878906 -4.347656 0.734375 -4.757812 0.734375 -5.25 C 0.734375 -5.625 0.832031 -5.953125 1.03125 -6.234375 C 1.226562 -6.515625 1.507812 -6.726562 1.875 -6.875 C 2.238281 -7.03125 2.671875 -7.109375 3.171875 -7.109375 C 3.804688 -7.109375 4.304688 -7.019531 4.671875 -6.84375 C 5.046875 -6.664062 5.335938 -6.414062 5.546875 -6.09375 L 4.96875 -5.515625 L 4.84375 -5.515625 C 4.613281 -5.773438 4.367188 -5.960938 4.109375 -6.078125 C 3.847656 -6.191406 3.535156 -6.25 3.171875 -6.25 C 2.710938 -6.25 2.359375 -6.164062 2.109375 -6 C 1.867188 -5.832031 1.75 -5.59375 1.75 -5.28125 C 1.75 -5 1.832031 -4.769531 2 -4.59375 C 2.175781 -4.425781 2.476562 -4.289062 2.90625 -4.1875 L 4.0625 -3.90625 C 4.675781 -3.757812 5.113281 -3.519531 5.375 -3.1875 C 5.644531 -2.851562 5.78125 -2.4375 5.78125 -1.9375 C 5.78125 -1.53125 5.679688 -1.171875 5.484375 -0.859375 C 5.296875 -0.546875 5.003906 -0.300781 4.609375 -0.125 C 4.222656 0.0507812 3.75 0.140625 3.1875 0.140625 Z M 3.1875 0.140625 "/></g></g></g><g fill="#bb2700" fill-opacity="1"><g transform="translate(209.625678, 207.837096)"><g/></g></g><g fill="#bb2700" fill-opacity="1"><g transform="translate(212.801106, 207.837096)"><g><path d="M 1.390625 2.953125 C 1.160156 2.953125 0.941406 2.929688 0.734375 2.890625 C 0.535156 2.859375 0.359375 2.804688 0.203125 2.734375 L 0.40625 1.921875 L 0.515625 1.875 C 0.617188 1.925781 0.742188 1.96875 0.890625 2 C 1.046875 2.039062 1.203125 2.0625 1.359375 2.0625 C 1.640625 2.0625 1.875 2.019531 2.0625 1.9375 C 2.25 1.863281 2.40625 1.738281 2.53125 1.5625 C 2.664062 1.394531 2.789062 1.15625 2.90625 0.84375 L 3.15625 0.171875 L 0.359375 -6.96875 L 1.46875 -6.96875 L 3.65625 -1.28125 L 3.78125 -1.28125 L 5.90625 -6.96875 L 6.96875 -6.96875 L 3.84375 1.09375 C 3.664062 1.539062 3.46875 1.898438 3.25 2.171875 C 3.03125 2.441406 2.769531 2.640625 2.46875 2.765625 C 2.175781 2.890625 1.816406 2.953125 1.390625 2.953125 Z M 1.390625 2.953125 "/></g></g></g><g fill="#bb2700" fill-opacity="1"><g transform="translate(220.157726, 207.837096)"><g><path d="M 4 0.140625 C 3.34375 0.140625 2.769531 0 2.28125 -0.28125 C 1.800781 -0.5625 1.425781 -0.972656 1.15625 -1.515625 C 0.894531 -2.054688 0.765625 -2.710938 0.765625 -3.484375 C 0.765625 -4.253906 0.894531 -4.910156 1.15625 -5.453125 C 1.425781 -6.003906 1.800781 -6.414062 2.28125 -6.6875 C 2.769531 -6.96875 3.34375 -7.109375 4 -7.109375 C 4.65625 -7.109375 5.226562 -6.96875 5.71875 -6.6875 C 6.207031 -6.414062 6.582031 -6.003906 6.84375 -5.453125 C 7.101562 -4.910156 7.234375 -4.253906 7.234375 -3.484375 C 7.234375 -2.710938 7.101562 -2.054688 6.84375 -1.515625 C 6.582031 -0.972656 6.207031 -0.5625 5.71875 -0.28125 C 5.226562 0 4.65625 0.140625 4 0.140625 Z M 4 -0.796875 C 4.695312 -0.796875 5.226562 -1.015625 5.59375 -1.453125 C 5.96875 -1.890625 6.15625 -2.566406 6.15625 -3.484375 C 6.15625 -4.410156 5.96875 -5.09375 5.59375 -5.53125 C 5.226562 -5.96875 4.695312 -6.1875 4 -6.1875 C 3.300781 -6.1875 2.765625 -5.960938 2.390625 -5.515625 C 2.023438 -5.078125 1.84375 -4.398438 1.84375 -3.484375 C 1.84375 -2.566406 2.023438 -1.890625 2.390625 -1.453125 C 2.765625 -1.015625 3.300781 -0.796875 4 -0.796875 Z M 4 -0.796875 "/></g></g></g><g fill="#bb2700" fill-opacity="1"><g transform="translate(228.165877, 207.837096)"><g><path d="M 3.453125 0.140625 C 2.660156 0.140625 2.070312 -0.0664062 1.6875 -0.484375 C 1.300781 -0.910156 1.109375 -1.523438 1.109375 -2.328125 L 1.109375 -6.96875 L 2.140625 -6.96875 L 2.140625 -2.359375 C 2.140625 -1.296875 2.632812 -0.765625 3.625 -0.765625 C 4.257812 -0.765625 4.757812 -0.96875 5.125 -1.375 C 5.488281 -1.789062 5.671875 -2.460938 5.671875 -3.390625 L 5.671875 -6.96875 L 6.703125 -6.96875 L 6.703125 0 L 5.734375 0 L 5.734375 -1.09375 L 5.609375 -1.125 C 5.367188 -0.695312 5.078125 -0.378906 4.734375 -0.171875 C 4.398438 0.0351562 3.972656 0.140625 3.453125 0.140625 Z M 3.453125 0.140625 "/></g></g></g><g fill="#bb2700" fill-opacity="1"><g transform="translate(236.091797, 207.837096)"><g><path d="M 1.21875 0 L 1.21875 -6.96875 L 2.1875 -6.96875 L 2.1875 -5.875 L 2.328125 -5.84375 C 2.648438 -6.644531 3.257812 -7.046875 4.15625 -7.046875 C 4.632812 -7.046875 4.992188 -6.957031 5.234375 -6.78125 L 4.96875 -5.90625 L 4.84375 -5.875 C 4.582031 -6.007812 4.296875 -6.078125 3.984375 -6.078125 C 3.421875 -6.078125 2.988281 -5.867188 2.6875 -5.453125 C 2.394531 -5.035156 2.25 -4.359375 2.25 -3.421875 L 2.25 0 Z M 1.21875 0 "/></g></g></g><g fill="#bb2700" fill-opacity="1"><g transform="translate(241.481169, 207.837096)"><g/></g></g><g fill="#bb2700" fill-opacity="1"><g transform="translate(244.656597, 207.837096)"><g><path d="M 3.453125 0 L 2.15625 0 L 0.453125 -6.96875 L 1.46875 -6.96875 L 2.796875 -1.203125 L 2.921875 -1.203125 L 4.546875 -6.96875 L 5.625 -6.96875 L 7.3125 -1.203125 L 7.4375 -1.203125 L 8.734375 -6.96875 L 9.71875 -6.96875 L 8.03125 0 L 6.71875 0 L 5.125 -5.40625 L 5 -5.40625 Z M 3.453125 0 "/></g></g></g><g fill="#bb2700" fill-opacity="1"><g transform="translate(254.828088, 207.837096)"><g><path d="M 1.734375 -8.328125 C 1.515625 -8.328125 1.335938 -8.394531 1.203125 -8.53125 C 1.066406 -8.664062 1 -8.835938 1 -9.046875 C 1 -9.253906 1.066406 -9.425781 1.203125 -9.5625 C 1.335938 -9.707031 1.515625 -9.78125 1.734375 -9.78125 C 1.953125 -9.78125 2.128906 -9.707031 2.265625 -9.5625 C 2.398438 -9.425781 2.46875 -9.253906 2.46875 -9.046875 C 2.46875 -8.835938 2.398438 -8.664062 2.265625 -8.53125 C 2.128906 -8.394531 1.953125 -8.328125 1.734375 -8.328125 Z M 1.21875 0 L 1.21875 -6.96875 L 2.25 -6.96875 L 2.25 0 Z M 1.21875 0 "/></g></g></g><g fill="#bb2700" fill-opacity="1"><g transform="translate(258.288167, 207.837096)"><g><path d="M 1.21875 0 L 1.21875 -6.96875 L 2.1875 -6.96875 L 2.1875 -5.875 L 2.328125 -5.84375 C 2.554688 -6.257812 2.847656 -6.570312 3.203125 -6.78125 C 3.566406 -7 4.007812 -7.109375 4.53125 -7.109375 C 5.375 -7.109375 5.984375 -6.894531 6.359375 -6.46875 C 6.734375 -6.039062 6.921875 -5.378906 6.921875 -4.484375 L 6.921875 0 L 5.890625 0 L 5.890625 -4.46875 C 5.890625 -4.882812 5.835938 -5.21875 5.734375 -5.46875 C 5.628906 -5.726562 5.460938 -5.914062 5.234375 -6.03125 C 5.003906 -6.144531 4.707031 -6.203125 4.34375 -6.203125 C 3.71875 -6.203125 3.210938 -5.992188 2.828125 -5.578125 C 2.441406 -5.171875 2.25 -4.503906 2.25 -3.578125 L 2.25 0 Z M 1.21875 0 "/></g></g></g><g fill="#bb2700" fill-opacity="1"><g transform="translate(266.321621, 207.837096)"><g><path d="M 6.640625 -3.25 L 1.859375 -3.25 C 1.878906 -2.40625 2.078125 -1.785156 2.453125 -1.390625 C 2.835938 -0.992188 3.359375 -0.796875 4.015625 -0.796875 C 4.515625 -0.796875 4.914062 -0.882812 5.21875 -1.0625 C 5.519531 -1.238281 5.757812 -1.515625 5.9375 -1.890625 L 6.0625 -1.890625 L 6.734375 -1.5 C 6.535156 -0.988281 6.210938 -0.585938 5.765625 -0.296875 C 5.316406 -0.00390625 4.734375 0.140625 4.015625 0.140625 C 3.335938 0.140625 2.753906 0.00390625 2.265625 -0.265625 C 1.785156 -0.535156 1.414062 -0.9375 1.15625 -1.46875 C 0.894531 -2.007812 0.765625 -2.679688 0.765625 -3.484375 C 0.765625 -4.273438 0.898438 -4.941406 1.171875 -5.484375 C 1.453125 -6.035156 1.832031 -6.441406 2.3125 -6.703125 C 2.789062 -6.972656 3.335938 -7.109375 3.953125 -7.109375 C 4.847656 -7.109375 5.546875 -6.851562 6.046875 -6.34375 C 6.546875 -5.84375 6.800781 -5.097656 6.8125 -4.109375 C 6.8125 -3.722656 6.800781 -3.460938 6.78125 -3.328125 Z M 5.78125 -4.109375 C 5.769531 -4.847656 5.609375 -5.382812 5.296875 -5.71875 C 4.984375 -6.0625 4.535156 -6.234375 3.953125 -6.234375 C 3.335938 -6.234375 2.859375 -6.0625 2.515625 -5.71875 C 2.171875 -5.382812 1.957031 -4.847656 1.875 -4.109375 Z M 5.78125 -4.109375 "/></g></g></g><g fill="#bb2700" fill-opacity="1"><g transform="translate(273.763217, 207.837096)"><g/></g></g><g fill="#bb2700" fill-opacity="1"><g transform="translate(276.938645, 207.837096)"><g/></g></g><g fill="#bb2700" fill-opacity="1"><g transform="translate(280.121236, 207.837096)"><g><path d="M 1.5625 0 L 1.5625 -6.140625 L 0.34375 -6.140625 L 0.34375 -6.984375 L 1.5625 -6.984375 C 1.476562 -7.285156 1.4375 -7.570312 1.4375 -7.84375 C 1.4375 -8.300781 1.53125 -8.679688 1.71875 -8.984375 C 1.914062 -9.296875 2.1875 -9.523438 2.53125 -9.671875 C 2.875 -9.828125 3.269531 -9.90625 3.71875 -9.90625 C 4.40625 -9.90625 4.9375 -9.757812 5.3125 -9.46875 L 4.921875 -8.734375 L 4.78125 -8.703125 C 4.507812 -8.921875 4.15625 -9.03125 3.71875 -9.03125 C 3.300781 -9.03125 2.988281 -8.925781 2.78125 -8.71875 C 2.570312 -8.507812 2.46875 -8.210938 2.46875 -7.828125 C 2.46875 -7.585938 2.507812 -7.304688 2.59375 -6.984375 L 4.8125 -6.984375 L 4.8125 -6.140625 L 2.59375 -6.140625 L 2.59375 0 Z M 1.5625 0 "/></g></g></g><g fill="#bb2700" fill-opacity="1"><g transform="translate(285.093121, 207.837096)"><g><path d="M 4 0.140625 C 3.34375 0.140625 2.769531 0 2.28125 -0.28125 C 1.800781 -0.5625 1.425781 -0.972656 1.15625 -1.515625 C 0.894531 -2.054688 0.765625 -2.710938 0.765625 -3.484375 C 0.765625 -4.253906 0.894531 -4.910156 1.15625 -5.453125 C 1.425781 -6.003906 1.800781 -6.414062 2.28125 -6.6875 C 2.769531 -6.96875 3.34375 -7.109375 4 -7.109375 C 4.65625 -7.109375 5.226562 -6.96875 5.71875 -6.6875 C 6.207031 -6.414062 6.582031 -6.003906 6.84375 -5.453125 C 7.101562 -4.910156 7.234375 -4.253906 7.234375 -3.484375 C 7.234375 -2.710938 7.101562 -2.054688 6.84375 -1.515625 C 6.582031 -0.972656 6.207031 -0.5625 5.71875 -0.28125 C 5.226562 0 4.65625 0.140625 4 0.140625 Z M 4 -0.796875 C 4.695312 -0.796875 5.226562 -1.015625 5.59375 -1.453125 C 5.96875 -1.890625 6.15625 -2.566406 6.15625 -3.484375 C 6.15625 -4.410156 5.96875 -5.09375 5.59375 -5.53125 C 5.226562 -5.96875 4.695312 -6.1875 4 -6.1875 C 3.300781 -6.1875 2.765625 -5.960938 2.390625 -5.515625 C 2.023438 -5.078125 1.84375 -4.398438 1.84375 -3.484375 C 1.84375 -2.566406 2.023438 -1.890625 2.390625 -1.453125 C 2.765625 -1.015625 3.300781 -0.796875 4 -0.796875 Z M 4 -0.796875 "/></g></g></g><g fill="#bb2700" fill-opacity="1"><g transform="translate(293.101273, 207.837096)"><g><path d="M 1.21875 0 L 1.21875 -6.96875 L 2.1875 -6.96875 L 2.1875 -5.875 L 2.328125 -5.84375 C 2.648438 -6.644531 3.257812 -7.046875 4.15625 -7.046875 C 4.632812 -7.046875 4.992188 -6.957031 5.234375 -6.78125 L 4.96875 -5.90625 L 4.84375 -5.875 C 4.582031 -6.007812 4.296875 -6.078125 3.984375 -6.078125 C 3.421875 -6.078125 2.988281 -5.867188 2.6875 -5.453125 C 2.394531 -5.035156 2.25 -4.359375 2.25 -3.421875 L 2.25 0 Z M 1.21875 0 "/></g></g></g><g fill="#bb2700" fill-opacity="1"><g transform="translate(298.490645, 207.837096)"><g/></g></g><g fill="#bb2700" fill-opacity="1"><g transform="translate(301.666073, 207.837096)"><g><path d="M 4.71875 -1.109375 L 5.046875 -0.359375 C 4.878906 -0.203125 4.660156 -0.0820312 4.390625 0 C 4.128906 0.09375 3.84375 0.140625 3.53125 0.140625 C 2.195312 0.140625 1.53125 -0.535156 1.53125 -1.890625 L 1.53125 -6.140625 L 0.3125 -6.140625 L 0.3125 -6.984375 L 1.53125 -6.984375 L 1.53125 -8.453125 L 2.5625 -8.625 L 2.5625 -6.984375 L 4.8125 -6.984375 L 4.8125 -6.140625 L 2.5625 -6.140625 L 2.5625 -2 C 2.5625 -1.195312 2.910156 -0.796875 3.609375 -0.796875 C 3.984375 -0.796875 4.304688 -0.898438 4.578125 -1.109375 Z M 4.71875 -1.109375 "/></g></g></g><g fill="#bb2700" fill-opacity="1"><g transform="translate(306.979539, 207.837096)"><g><path d="M 4 0.140625 C 3.34375 0.140625 2.769531 0 2.28125 -0.28125 C 1.800781 -0.5625 1.425781 -0.972656 1.15625 -1.515625 C 0.894531 -2.054688 0.765625 -2.710938 0.765625 -3.484375 C 0.765625 -4.253906 0.894531 -4.910156 1.15625 -5.453125 C 1.425781 -6.003906 1.800781 -6.414062 2.28125 -6.6875 C 2.769531 -6.96875 3.34375 -7.109375 4 -7.109375 C 4.65625 -7.109375 5.226562 -6.96875 5.71875 -6.6875 C 6.207031 -6.414062 6.582031 -6.003906 6.84375 -5.453125 C 7.101562 -4.910156 7.234375 -4.253906 7.234375 -3.484375 C 7.234375 -2.710938 7.101562 -2.054688 6.84375 -1.515625 C 6.582031 -0.972656 6.207031 -0.5625 5.71875 -0.28125 C 5.226562 0 4.65625 0.140625 4 0.140625 Z M 4 -0.796875 C 4.695312 -0.796875 5.226562 -1.015625 5.59375 -1.453125 C 5.96875 -1.890625 6.15625 -2.566406 6.15625 -3.484375 C 6.15625 -4.410156 5.96875 -5.09375 5.59375 -5.53125 C 5.226562 -5.96875 4.695312 -6.1875 4 -6.1875 C 3.300781 -6.1875 2.765625 -5.960938 2.390625 -5.515625 C 2.023438 -5.078125 1.84375 -4.398438 1.84375 -3.484375 C 1.84375 -2.566406 2.023438 -1.890625 2.390625 -1.453125 C 2.765625 -1.015625 3.300781 -0.796875 4 -0.796875 Z M 4 -0.796875 "/></g></g></g><g fill="#bb2700" fill-opacity="1"><g transform="translate(314.987691, 207.837096)"><g><path d="M 3.625 0.140625 C 3.0625 0.140625 2.566406 0.00390625 2.140625 -0.265625 C 1.710938 -0.535156 1.375 -0.941406 1.125 -1.484375 C 0.882812 -2.023438 0.765625 -2.691406 0.765625 -3.484375 C 0.765625 -4.285156 0.890625 -4.957031 1.140625 -5.5 C 1.398438 -6.039062 1.75 -6.441406 2.1875 -6.703125 C 2.632812 -6.972656 3.148438 -7.109375 3.734375 -7.109375 C 4.203125 -7.109375 4.617188 -7.019531 4.984375 -6.84375 C 5.359375 -6.664062 5.675781 -6.378906 5.9375 -5.984375 L 6.078125 -6.015625 L 6.078125 -9.78125 L 7.109375 -9.78125 L 7.109375 0 L 6.078125 0 L 6.078125 -1.015625 L 5.9375 -1.046875 C 5.71875 -0.703125 5.410156 -0.414062 5.015625 -0.1875 C 4.628906 0.03125 4.164062 0.140625 3.625 0.140625 Z M 3.9375 -0.796875 C 4.59375 -0.796875 5.113281 -1.015625 5.5 -1.453125 C 5.882812 -1.898438 6.078125 -2.578125 6.078125 -3.484375 C 6.078125 -4.390625 5.882812 -5.066406 5.5 -5.515625 C 5.113281 -5.960938 4.59375 -6.1875 3.9375 -6.1875 C 3.269531 -6.1875 2.753906 -5.96875 2.390625 -5.53125 C 2.023438 -5.09375 1.84375 -4.410156 1.84375 -3.484375 C 1.84375 -1.691406 2.539062 -0.796875 3.9375 -0.796875 Z M 3.9375 -0.796875 "/></g></g></g><g fill="#bb2700" fill-opacity="1"><g transform="translate(323.318446, 207.837096)"><g><path d="M 2.875 0.140625 C 2.1875 0.140625 1.648438 -0.0351562 1.265625 -0.390625 C 0.878906 -0.753906 0.6875 -1.269531 0.6875 -1.9375 C 0.6875 -2.351562 0.769531 -2.703125 0.9375 -2.984375 C 1.113281 -3.273438 1.378906 -3.507812 1.734375 -3.6875 C 2.097656 -3.863281 2.566406 -4 3.140625 -4.09375 C 3.648438 -4.175781 4.035156 -4.269531 4.296875 -4.375 C 4.554688 -4.488281 4.734375 -4.609375 4.828125 -4.734375 C 4.921875 -4.867188 4.96875 -5.035156 4.96875 -5.234375 C 4.96875 -5.546875 4.859375 -5.785156 4.640625 -5.953125 C 4.421875 -6.117188 4.070312 -6.203125 3.59375 -6.203125 C 3.144531 -6.203125 2.757812 -6.113281 2.4375 -5.9375 C 2.113281 -5.769531 1.816406 -5.515625 1.546875 -5.171875 L 1.421875 -5.171875 L 0.90625 -5.875 C 1.207031 -6.25 1.582031 -6.546875 2.03125 -6.765625 C 2.488281 -6.992188 3.007812 -7.109375 3.59375 -7.109375 C 4.414062 -7.109375 5.019531 -6.925781 5.40625 -6.5625 C 5.800781 -6.207031 6 -5.710938 6 -5.078125 L 6 -1.375 C 6 -0.988281 6.160156 -0.796875 6.484375 -0.796875 C 6.597656 -0.796875 6.707031 -0.8125 6.8125 -0.84375 L 6.890625 -0.828125 L 7.015625 -0.109375 C 6.941406 -0.0546875 6.84375 -0.0195312 6.71875 0 C 6.59375 0.03125 6.460938 0.046875 6.328125 0.046875 C 5.941406 0.046875 5.648438 -0.0351562 5.453125 -0.203125 C 5.265625 -0.367188 5.140625 -0.617188 5.078125 -0.953125 L 4.953125 -0.96875 C 4.753906 -0.59375 4.484375 -0.3125 4.140625 -0.125 C 3.804688 0.0507812 3.382812 0.140625 2.875 0.140625 Z M 3.109375 -0.6875 C 3.492188 -0.6875 3.828125 -0.773438 4.109375 -0.953125 C 4.398438 -1.140625 4.617188 -1.394531 4.765625 -1.71875 C 4.921875 -2.039062 5 -2.414062 5 -2.84375 L 5 -3.71875 L 4.875 -3.75 C 4.71875 -3.644531 4.523438 -3.550781 4.296875 -3.46875 C 4.078125 -3.394531 3.769531 -3.332031 3.375 -3.28125 C 2.96875 -3.21875 2.644531 -3.128906 2.40625 -3.015625 C 2.164062 -2.910156 1.992188 -2.769531 1.890625 -2.59375 C 1.796875 -2.414062 1.75 -2.195312 1.75 -1.9375 C 1.75 -1.53125 1.867188 -1.21875 2.109375 -1 C 2.347656 -0.789062 2.679688 -0.6875 3.109375 -0.6875 Z M 3.109375 -0.6875 "/></g></g></g><g fill="#bb2700" fill-opacity="1"><g transform="translate(330.535903, 207.837096)"><g><path d="M 1.390625 2.953125 C 1.160156 2.953125 0.941406 2.929688 0.734375 2.890625 C 0.535156 2.859375 0.359375 2.804688 0.203125 2.734375 L 0.40625 1.921875 L 0.515625 1.875 C 0.617188 1.925781 0.742188 1.96875 0.890625 2 C 1.046875 2.039062 1.203125 2.0625 1.359375 2.0625 C 1.640625 2.0625 1.875 2.019531 2.0625 1.9375 C 2.25 1.863281 2.40625 1.738281 2.53125 1.5625 C 2.664062 1.394531 2.789062 1.15625 2.90625 0.84375 L 3.15625 0.171875 L 0.359375 -6.96875 L 1.46875 -6.96875 L 3.65625 -1.28125 L 3.78125 -1.28125 L 5.90625 -6.96875 L 6.96875 -6.96875 L 3.84375 1.09375 C 3.664062 1.539062 3.46875 1.898438 3.25 2.171875 C 3.03125 2.441406 2.769531 2.640625 2.46875 2.765625 C 2.175781 2.890625 1.816406 2.953125 1.390625 2.953125 Z M 1.390625 2.953125 "/></g></g></g><g fill="#bb2700" fill-opacity="1"><g transform="translate(337.892523, 207.837096)"><g><path d="M 2.453125 -3.328125 C 2.453125 -3.609375 2.488281 -3.851562 2.5625 -4.0625 C 2.632812 -4.269531 2.75 -4.460938 2.90625 -4.640625 C 3.0625 -4.828125 3.285156 -5.03125 3.578125 -5.25 L 4.15625 -5.703125 C 4.414062 -5.898438 4.601562 -6.113281 4.71875 -6.34375 C 4.832031 -6.570312 4.890625 -6.835938 4.890625 -7.140625 C 4.890625 -7.523438 4.742188 -7.832031 4.453125 -8.0625 C 4.171875 -8.289062 3.773438 -8.40625 3.265625 -8.40625 C 2.367188 -8.40625 1.703125 -8.007812 1.265625 -7.21875 L 1.125 -7.1875 L 0.46875 -7.875 C 1.125 -8.875 2.054688 -9.375 3.265625 -9.375 C 3.867188 -9.375 4.378906 -9.273438 4.796875 -9.078125 C 5.210938 -8.890625 5.519531 -8.625 5.71875 -8.28125 C 5.925781 -7.945312 6.03125 -7.566406 6.03125 -7.140625 C 6.03125 -6.660156 5.921875 -6.253906 5.703125 -5.921875 C 5.484375 -5.597656 5.171875 -5.28125 4.765625 -4.96875 L 4.25 -4.578125 C 4.050781 -4.421875 3.898438 -4.28125 3.796875 -4.15625 C 3.691406 -4.039062 3.617188 -3.910156 3.578125 -3.765625 C 3.535156 -3.628906 3.515625 -3.457031 3.515625 -3.25 L 3.515625 -3.0625 L 2.453125 -3.0625 Z M 2.953125 0.0625 C 2.710938 0.0625 2.523438 -0.00390625 2.390625 -0.140625 C 2.253906 -0.273438 2.1875 -0.453125 2.1875 -0.671875 C 2.1875 -0.890625 2.253906 -1.066406 2.390625 -1.203125 C 2.523438 -1.347656 2.710938 -1.421875 2.953125 -1.421875 C 3.203125 -1.421875 3.394531 -1.351562 3.53125 -1.21875 C 3.664062 -1.09375 3.734375 -0.914062 3.734375 -0.6875 C 3.734375 -0.46875 3.664062 -0.285156 3.53125 -0.140625 C 3.394531 -0.00390625 3.203125 0.0625 2.953125 0.0625 Z M 2.953125 0.0625 "/></g></g></g><g fill="#bb2700" fill-opacity="1"><g transform="translate(158.028803, 182.982703)"><g><path d="M 4.015625 -19.28125 C 3.503906 -19.28125 3.085938 -19.4375 2.765625 -19.75 C 2.453125 -20.070312 2.296875 -20.476562 2.296875 -20.96875 C 2.296875 -21.445312 2.453125 -21.84375 2.765625 -22.15625 C 3.085938 -22.476562 3.503906 -22.640625 4.015625 -22.640625 C 4.523438 -22.640625 4.9375 -22.476562 5.25 -22.15625 C 5.570312 -21.84375 5.734375 -21.445312 5.734375 -20.96875 C 5.734375 -20.476562 5.570312 -20.070312 5.25 -19.75 C 4.9375 -19.4375 4.523438 -19.28125 4.015625 -19.28125 Z M 2.8125 0 L 2.8125 -16.15625 L 5.203125 -16.15625 L 5.203125 0 Z M 2.8125 0 "/></g></g></g></svg>