<?xml version="1.0" encoding="UTF-8" standalone="no"?>
<!-- Created with Inkscape (http://www.inkscape.org/) -->

<svg
   version="1.1"
   id="svg1"
   width="307.20001"
   height="307.20001"
   viewBox="0 0 307.20001 307.20001"
   xml:space="preserve"
   sodipodi:docname="logo.svg"
   inkscape:version="1.4 (e7c3feb1, 2024-10-09)"
   xmlns:inkscape="http://www.inkscape.org/namespaces/inkscape"
   xmlns:sodipodi="http://sodipodi.sourceforge.net/DTD/sodipodi-0.dtd"
   xmlns:xlink="http://www.w3.org/1999/xlink"
   xmlns="http://www.w3.org/2000/svg"
   xmlns:svg="http://www.w3.org/2000/svg"><sodipodi:namedview
     id="namedview1"
     pagecolor="#ffffff"
     bordercolor="#000000"
     borderopacity="0.25"
     inkscape:showpageshadow="2"
     inkscape:pageopacity="0.0"
     inkscape:pagecheckerboard="0"
     inkscape:deskcolor="#d1d1d1"
     inkscape:zoom="1.75"
     inkscape:cx="110.28571"
     inkscape:cy="138.85714"
     inkscape:window-width="1472"
     inkscape:window-height="813"
     inkscape:window-x="953"
     inkscape:window-y="1477"
     inkscape:window-maximized="0"
     inkscape:current-layer="svg1" /><defs
     id="defs1"><linearGradient
       id="linearGradient40"
       inkscape:collect="always"><stop
         style="stop-color:#ffffff;stop-opacity:1;"
         offset="0.34999999"
         id="stop40" /><stop
         style="stop-color:#bb271a;stop-opacity:1;"
         offset="0.34999999"
         id="stop41" /></linearGradient><linearGradient
       id="linearGradient38"
       inkscape:collect="always"><stop
         style="stop-color:#ffffff;stop-opacity:1;"
         offset="0.27000001"
         id="stop39" /><stop
         style="stop-color:#bb2700;stop-opacity:1;"
         offset="0.27000001"
         id="stop38" /></linearGradient><linearGradient
       id="linearGradient28"
       inkscape:collect="always"><stop
         style="stop-color:#000000;stop-opacity:1;"
         offset="0"
         id="stop29" /><stop
         style="stop-color:#000000;stop-opacity:0;"
         offset="1"
         id="stop30" /></linearGradient><linearGradient
       id="swatch28"
       inkscape:swatch="solid"><stop
         style="stop-color:#000000;stop-opacity:1;"
         offset="0"
         id="stop28" /></linearGradient><linearGradient
       id="swatch25"
       inkscape:swatch="solid"><stop
         style="stop-color:#000000;stop-opacity:1;"
         offset="0"
         id="stop25" /></linearGradient><linearGradient
       id="swatch13"
       inkscape:swatch="solid"><stop
         style="stop-color:#000000;stop-opacity:1;"
         offset="0"
         id="stop14" /></linearGradient><linearGradient
       id="linearGradient7-1"><stop
         style="stop-color:#bb2700;stop-opacity:0;"
         offset="0.31891891"
         id="stop12" /><stop
         style="stop-color:#6d5f46;stop-opacity:0.98672569;"
         offset="0.93513513"
         id="stop13" /></linearGradient><linearGradient
       id="linearGradient7"><stop
         style="stop-color:#bb2700;stop-opacity:0;"
         offset="0"
         id="stop10" /><stop
         style="stop-color:#bb2700;stop-opacity:1;"
         offset="1"
         id="stop11" /></linearGradient><linearGradient
       id="linearGradient7-2"><stop
         style="stop-color:#bb2700;stop-opacity:0;"
         offset="0"
         id="stop9" /><stop
         style="stop-color:#bb2700;stop-opacity:1;"
         offset="1"
         id="stop8" /></linearGradient><linearGradient
       inkscape:collect="always"
       xlink:href="#linearGradient28"
       id="linearGradient30"
       x1="171.39409"
       y1="139.61354"
       x2="364.26334"
       y2="139.61354"
       gradientUnits="userSpaceOnUse" /><linearGradient
       inkscape:collect="always"
       xlink:href="#linearGradient38"
       id="linearGradient39"
       x1="221.80367"
       y1="185.513"
       x2="334.50018"
       y2="29.197918"
       gradientUnits="userSpaceOnUse"
       spreadMethod="repeat"
       gradientTransform="matrix(1.1061762,0,0,1.1061762,-75.109716,7.9513256)" /><linearGradient
       inkscape:collect="always"
       xlink:href="#linearGradient40"
       id="linearGradient41"
       x1="213.96829"
       y1="211.37819"
       x2="333.26666"
       y2="61.399601"
       gradientUnits="userSpaceOnUse"
       gradientTransform="matrix(1.1061762,0,0,1.1061762,-74.129744,6.0095416)" /></defs><path
     style="fill:#bb2700;fill-opacity:1;stroke-width:1.06986"
     d="m 113.23666,125.52972 c -11.20956,0.78547 -20.888928,5.80406 -27.105935,14.05394 -0.685269,0.90934 -1.562756,2.25867 -1.949964,2.99852 l -0.70399,1.34517 -39.229108,0.001 c -12.46382,0.126 -19.763844,0.0307 -20.582242,0.24306 -1.233976,0.32015 -2.613971,1.40919 -3.185287,2.51371 l -0.436931,0.84517 v 8.88 8.88 l 0.487918,0.8076 c 0.618804,1.02424 1.483699,1.77945 2.533854,2.21254 l 0.824119,0.33987 20.004837,0.0475 39.58284,0.0476 0.732546,1.38175 c 2.566304,4.84057 7.649327,9.66476 13.356882,12.67673 4.818421,2.54275 9.798351,3.92361 15.638531,4.33632 1.55117,0.10961 55.76613,0.0879 55.59098,-0.0723 -0.72279,-0.66134 -55.55905,-61.53816 -55.55905,-61.53816 z"
     id="path2"
     sodipodi:nodetypes="ssscccccccsscccsssccs" /><g
     id="g2"
     transform="matrix(0,1,0.93542537,0,27.640353,34.120766)"
     style="fill:#bb2700;fill-opacity:1" /><g
     id="g8"
     transform="matrix(0.68319133,0,0,0.8198608,-62.921259,210.66667)"
     style="display:none"><path
       style="fill:#ffffff;fill-opacity:1;stroke-width:0.240769"
       d="m 284.66596,-49.668576 c -2.22473,-0.575141 -4.26349,-2.24517 -5.28775,-4.331403 -0.52006,-1.059262 -0.53165,-1.3475 -0.60168,-14.970037 -0.0687,-13.363745 -0.0525,-13.948753 0.42887,-15.441221 0.65996,-2.046341 1.98086,-3.463312 4.17816,-4.482082 l 1.65638,-0.767971 h 15.51652 15.51652 l 1.65638,0.767971 c 2.19731,1.01877 3.5182,2.435741 4.17817,4.482082 0.48134,1.492468 0.49759,2.077476 0.42887,15.441221 l -0.0714,13.889979 -0.68735,1.318178 c -0.80194,1.537952 -2.46397,3.069562 -4.10697,3.784686 -1.14495,0.498347 -1.35824,0.505527 -16.418,0.552648 -11.56403,0.03618 -15.53125,-0.0229 -16.3867,-0.244051 z m 21.59674,-5.297841 c 1.5529,-0.816557 2.63044,-2.395647 2.84989,-4.176404 0.18503,-1.501422 0.041,-2.243064 -0.56076,-2.888516 -0.34754,-0.372746 -1.05447,-0.4089 -7.99537,-0.4089 -9.04433,0 -8.56925,-0.149874 -8.54448,2.69552 0.0128,1.471138 0.11643,1.86292 0.74429,2.81391 1.53943,2.331705 2.65982,2.689712 8.17234,2.611377 3.98151,-0.05658 4.28016,-0.0928 5.33409,-0.646987 z m -14.33454,-14.375939 c 1.6744,-1.038818 2.2799,-2.91622 1.4858,-4.606914 -1.01694,-2.165165 -3.43174,-3.047358 -5.6158,-2.05161 -1.39294,0.635066 -2.15552,1.602341 -2.31522,2.936682 -0.15917,1.329927 0.0412,2.012486 0.85961,2.928518 1.48152,1.658211 3.68672,1.971417 5.58561,0.793324 z m 21.97634,-0.02868 c 1.38063,-0.991767 1.82666,-1.867956 1.72348,-3.385682 -0.28018,-4.121422 -6.07491,-5.058081 -7.89825,-1.27667 -0.58351,1.21015 -0.58393,1.880797 -0.002,3.087783 1.08935,2.259063 4.14089,3.036965 6.17668,1.574569 z m -44.10717,7.689822 c -0.47486,-0.224695 -1.11681,-0.76581 -1.42656,-1.202477 -0.54741,-0.771734 -0.56315,-0.954721 -0.56277,-6.542399 4.9e-4,-6.318441 0.10068,-6.820839 1.5628,-7.83082 0.61031,-0.42158 1.06309,-0.480457 3.72146,-0.483922 l 3.02661,-0.0039 0.0652,8.236413 0.0652,8.236413 -2.79426,-4.68e-4 c -2.16509,-2.33e-4 -2.98868,-0.09235 -3.65767,-0.408899 z m 55.13152,-7.827151 0.0652,-8.236414 3.02662,0.0039 c 2.65836,0.0034 3.11114,0.06234 3.72145,0.483922 1.46212,1.00998 1.56238,1.512379 1.56281,7.830819 4.9e-4,5.587679 -0.0153,5.770665 -0.56278,6.542399 -0.92764,1.307777 -1.88425,1.610961 -5.08422,1.611377 l -2.79427,4.68e-4 z"
       id="path8" /></g><text
     xml:space="preserve"
     style="font-style:normal;font-variant:normal;font-weight:normal;font-stretch:normal;font-size:35.0615px;font-family:Higuen;-inkscape-font-specification:Higuen;text-align:start;writing-mode:lr-tb;direction:ltr;text-anchor:start;mix-blend-mode:normal;fill:url(#linearGradient39);stroke:none;stroke-width:2.92179;stroke-opacity:1"
     x="125.01408"
     y="139.16389"
     id="text14"
     transform="scale(0.86967623,1.1498532)"><tspan
       id="tspan14"
       x="125.01408"
       y="139.16389"
       style="font-style:normal;font-variant:normal;font-weight:normal;font-stretch:normal;font-family:Higuen;-inkscape-font-specification:Higuen;fill:url(#linearGradient39);fill-opacity:1;stroke:none;stroke-width:2.92179;stroke-opacity:1">i-SOMMELIER</tspan></text><text
     xml:space="preserve"
     style="font-style:normal;font-variant:normal;font-weight:normal;font-stretch:normal;font-size:16.3247px;font-family:Higuen;-inkscape-font-specification:Higuen;text-align:start;writing-mode:lr-tb;direction:ltr;text-anchor:start;mix-blend-mode:normal;fill:url(#linearGradient41);stroke:none;stroke-width:1.36059;stroke-dasharray:none;stroke-opacity:1"
     x="122.54593"
     y="161.31187"
     id="text14-2"
     transform="scale(0.89175422,1.1213852)"><tspan
       id="tspan14-7"
       x="122.54593"
       y="161.31187"
       style="font-style:normal;font-variant:normal;font-weight:normal;font-stretch:normal;font-family:Higuen;-inkscape-font-specification:Higuen;fill:url(#linearGradient41);fill-opacity:1;stroke:none;stroke-width:1.36059;stroke-dasharray:none;stroke-opacity:1">What's your wine for today?</tspan></text></svg>
